<svg width="55" height="55" viewBox="0 0 55 55" fill="none" xmlns="http://www.w3.org/2000/svg">
<circle cx="27.5" cy="27.5001" r="27.5" fill="#F5F5F8"/>
<g clip-path="url(#clip0_351_970)">
<path d="M22.6875 28.0001C22.6875 27.0092 22.9605 26.0809 23.4348 25.2861V21.9147H20.0634C18.7253 23.6526 18 25.7705 18 28.0001C18 30.2297 18.7253 32.3476 20.0634 34.0854H23.4348V30.714C22.9605 29.9192 22.6875 28.991 22.6875 28.0001Z" fill="#FBBD00"/>
<path d="M28 33.3126L25.6562 35.6564L28 38.0001C30.2296 38.0001 32.3475 37.2748 34.0854 35.9367V32.5689H30.7175C29.9158 33.0449 28.9836 33.3126 28 33.3126Z" fill="#0F9D58"/>
<path d="M23.4349 30.7139L20.0635 34.0854C20.3284 34.4294 20.6169 34.7589 20.929 35.0711C22.8178 36.9598 25.329 38 28.0001 38V33.3125C26.0616 33.3125 24.3627 32.2688 23.4349 30.7139Z" fill="#31AA52"/>
<path d="M38 28.0001C38 27.3917 37.9449 26.7822 37.8363 26.1885L37.7483 25.7081H28V30.3956H32.7442C32.2835 31.312 31.5752 32.0597 30.7175 32.5689L34.0853 35.9367C34.4294 35.6718 34.7589 35.3833 35.0711 35.0712C36.9598 33.1824 38 30.6712 38 28.0001Z" fill="#3C79E6"/>
<path d="M31.7565 24.2435L32.1708 24.6578L35.4854 21.3433L35.0711 20.929C33.1823 19.0403 30.6711 18.0001 28 18.0001L25.6562 20.3438L28 22.6876C29.419 22.6876 30.7531 23.2401 31.7565 24.2435Z" fill="#CF2D48"/>
<path d="M28.0001 22.6876V18.0001C25.329 18.0001 22.8178 19.0403 20.929 20.929C20.6169 21.2411 20.3284 21.5706 20.0635 21.9147L23.4349 25.2861C24.3627 23.7313 26.0617 22.6876 28.0001 22.6876Z" fill="#EB4132"/>
</g>
<defs>
<clipPath id="clip0_351_970">
<rect width="20" height="20" fill="white" transform="translate(18 18.0001)"/>
</clipPath>
</defs>
</svg>
