<svg width="55" height="55" viewBox="0 0 55 55" fill="none" xmlns="http://www.w3.org/2000/svg">
<circle cx="27.5" cy="27.5" r="27.5" fill="#F5F5F8"/>
<path d="M20.4829 22.697C21.6913 22.697 22.6709 21.7174 22.6709 20.509C22.6709 19.3006 21.6913 18.321 20.4829 18.321C19.2745 18.321 18.2949 19.3006 18.2949 20.509C18.2949 21.7174 19.2745 22.697 20.4829 22.697Z" fill="#0A66C2"/>
<path d="M24.7367 24.355V36.494H28.5057V30.491C28.5057 28.907 28.8037 27.373 30.7677 27.373C32.7047 27.373 32.7287 29.184 32.7287 30.591V36.495H36.4997V29.838C36.4997 26.568 35.7957 24.055 31.9737 24.055C30.1387 24.055 28.9087 25.062 28.4057 26.015H28.3547V24.355H24.7367V24.355ZM18.5947 24.355H22.3697V36.494H18.5947V24.355Z" fill="#0A66C2"/>
</svg>
